<svg width="40" height="40" viewBox="0 0 40 40" fill="none" xmlns="http://www.w3.org/2000/svg">
<rect width="40" height="40" rx="20" fill="url(#paint0_linear_205_66)"/>
<path d="M17.045 13H16.5C15.6716 13 15 13.6716 15 14.5V25.68C15 26.5084 15.6716 27.18 16.5 27.18H17.045C17.8734 27.18 18.545 26.5084 18.545 25.68V14.5C18.545 13.6716 17.8734 13 17.045 13Z" fill="white"/>
<path d="M24.1351 13H23.5901C22.7617 13 22.0901 13.6716 22.0901 14.5V25.68C22.0901 26.5084 22.7617 27.18 23.5901 27.18H24.1351C24.9635 27.18 25.6351 26.5084 25.6351 25.68V14.5C25.6351 13.6716 24.9635 13 24.1351 13Z" fill="white"/>
<defs>
<linearGradient id="paint0_linear_205_66" x1="33" y1="4.5" x2="-2.11596e-06" y2="40" gradientUnits="userSpaceOnUse">
<stop offset="0.2" stop-color="#00FF75"/>
<stop offset="0.8" stop-color="#3700FF"/>
</linearGradient>
</defs>
</svg>
